TITLE ""
FILE "Disc2Track23.mp3" MP3
  TRACK 01 AUDIO
    TITLE "Disc2Track23_01"
    INDEX 01 00:00:00
  TRACK 02 AUDIO
    TITLE "Disc2Track23_02"
    INDEX 01 00:01:04
  TRACK 03 AUDIO
    TITLE "Disc2Track23_03"
    INDEX 01 00:04:63
  TRACK 04 AUDIO
    TITLE "Disc2Track23_04"
    INDEX 01 00:06:03
  TRACK 05 AUDIO
    TITLE "Disc2Track23_05"
    INDEX 01 00:09:23
  TRACK 06 AUDIO
    TITLE "Disc2Track23_06"
    INDEX 01 00:09:52
  TRACK 07 AUDIO
    TITLE "Disc2Track23_07"
    INDEX 01 00:10:71
  TRACK 08 AUDIO
    TITLE "Disc2Track23_08"
    INDEX 01 00:11:65
  TRACK 09 AUDIO
    TITLE "Disc2Track23_09"
    INDEX 01 00:13:09
  TRACK 10 AUDIO
    TITLE "Disc2Track23_10"
    INDEX 01 00:13:46
  TRACK 11 AUDIO
    TITLE "Disc2Track23_11"
    INDEX 01 00:14:69
  TRACK 12 AUDIO
    TITLE "Disc2Track23_12"
    INDEX 01 00:16:21
  TRACK 13 AUDIO
    TITLE "Disc2Track23_13"
    INDEX 01 00:17:44
  TRACK 14 AUDIO
    TITLE "Disc2Track23_14"
    INDEX 01 00:18:10
  TRACK 15 AUDIO
    TITLE "Disc2Track23_15"
    INDEX 01 00:19:41
  TRACK 16 AUDIO
    TITLE "Disc2Track23_16"
    INDEX 01 00:22:14
  TRACK 17 AUDIO
    TITLE "Disc2Track23_17"
    INDEX 01 00:23:45
  TRACK 18 AUDIO
    TITLE "Disc2Track23_18"
    INDEX 01 00:24:05
  TRACK 19 AUDIO
    TITLE "Disc2Track23_19"
    INDEX 01 00:25:24
  TRACK 20 AUDIO
    TITLE "Disc2Track23_20"
    INDEX 01 00:27:42
  TRACK 21 AUDIO
    TITLE "Disc2Track23_21"
    INDEX 01 00:28:61
  TRACK 22 AUDIO
    TITLE "Disc2Track23_22"
    INDEX 01 00:30:54
  TRACK 23 AUDIO
    TITLE "Disc2Track23_23"
    INDEX 01 00:31:09
  TRACK 24 AUDIO
    TITLE "Disc2Track23_24"
    INDEX 01 00:32:26
  TRACK 25 AUDIO
    TITLE "Disc2Track23_25"
    INDEX 01 00:36:55
  TRACK 26 AUDIO
    TITLE "Disc2Track23_26"
    INDEX 01 00:37:70
  TRACK 27 AUDIO
    TITLE "Disc2Track23_27"
    INDEX 01 00:41:39
  TRACK 28 AUDIO
    TITLE "Disc2Track23_28"
    INDEX 01 00:41:68
  TRACK 29 AUDIO
    TITLE "Disc2Track23_29"
    INDEX 01 00:43:24
  TRACK 30 AUDIO
    TITLE "Disc2Track23_30"
    INDEX 01 00:46:54
  TRACK 31 AUDIO
    TITLE "Disc2Track23_31"
    INDEX 01 00:48:09
  TRACK 32 AUDIO
    TITLE "Disc2Track23_32"
    INDEX 01 00:51:06
  TRACK 33 AUDIO
    TITLE "Disc2Track23_33"
    INDEX 01 00:51:39
  TRACK 34 AUDIO
    TITLE "Disc2Track23_34"
    INDEX 01 00:52:58
  TRACK 35 AUDIO
    TITLE "Disc2Track23_35"
    INDEX 01 00:54:47
  TRACK 36 AUDIO
    TITLE "Disc2Track23_36"
    INDEX 01 00:55:68
  TRACK 37 AUDIO
    TITLE "Disc2Track23_37"
    INDEX 01 00:56:30
  TRACK 38 AUDIO
    TITLE "Disc2Track23_38"
    INDEX 01 00:57:49
  TRACK 39 AUDIO
    TITLE "Disc2Track23_39"
    INDEX 01 01:01:10
  TRACK 40 AUDIO
    TITLE "Disc2Track23_40"
    INDEX 01 01:02:27
  TRACK 41 AUDIO
    TITLE "Disc2Track23_41"
    INDEX 01 01:08:14
  TRACK 42 AUDIO
    TITLE "Disc2Track23_42"
    INDEX 01 01:08:43
  TRACK 43 AUDIO
    TITLE "Disc2Track23_43"
    INDEX 01 01:09:66
  TRACK 44 AUDIO
    TITLE "Disc2Track23_44"
    INDEX 01 01:12:47
  TRACK 45 AUDIO
    TITLE "Disc2Track23_45"
    INDEX 01 01:13:72
  TRACK 46 AUDIO
    TITLE "Disc2Track23_46"
    INDEX 01 01:14:34
  TRACK 47 AUDIO
    TITLE "Disc2Track23_47"
    INDEX 01 01:15:41
  TRACK 48 AUDIO
    TITLE "Disc2Track23_48"
    INDEX 01 01:18:06
  TRACK 49 AUDIO
    TITLE "Disc2Track23_49"
    INDEX 01 01:19:12
  TRACK 50 AUDIO
    TITLE "Disc2Track23_50"
    INDEX 01 01:23:68
